<svg width="255" height="63" viewBox="0 0 255 63" fill="none" xmlns="http://www.w3.org/2000/svg">
<path d="M13.0141 55.3624C13.0484 55.3624 13.0484 55.3624 13.0141 55.3624C13.0141 55.3624 12.9455 55.3624 13.0141 55.3624ZM12.7052 55.3301C12.8082 55.3301 12.8768 55.3624 12.9798 55.3624H13.0828C13.2201 55.3624 13.3574 55.3947 13.4947 55.3947C13.838 55.427 14.147 55.4593 14.4902 55.4593C15.8634 55.5239 17.2708 55.4593 18.6439 55.2978C18.8156 55.2655 19.0215 55.2655 19.1932 55.2332C19.1932 55.2332 19.1932 55.2332 19.2275 55.2332C19.2275 55.2332 19.2275 55.2332 19.2618 55.2332C19.3305 55.2332 19.4335 55.2009 19.5021 55.2009C19.8454 55.1686 20.223 55.104 20.5663 55.0394C20.6006 55.0394 20.635 55.0394 20.6693 55.0071C20.6006 54.9425 20.4976 54.8779 20.429 54.8133C20.3947 54.8133 20.3947 54.781 20.3603 54.7487C20.2917 54.7164 20.223 54.6518 20.1544 54.6195C19.8797 54.4257 19.6394 54.2642 19.3648 54.0705C18.8156 53.7152 18.1977 53.3922 17.5798 53.1338H17.5454C16.8245 52.9077 16.0693 52.6816 15.3141 52.4878C14.4902 52.294 13.6664 52.1326 12.8425 52.0357C12.8425 52.0357 12.6365 52.0034 12.5679 52.0034C12.4992 52.0034 12.4649 52.0034 12.3962 51.9711C12.1903 51.9388 12.0186 51.9388 11.8126 51.9065C11.4007 51.8742 10.9545 51.8419 10.5425 51.8096C9.71864 51.7773 8.86043 51.7773 8.03655 51.8096C7.65894 51.8096 7.24702 51.8419 6.86941 51.8742C6.93807 52.0034 7.00673 52.1326 7.10971 52.2295C7.17837 52.3263 7.28133 52.4555 7.34999 52.5524L7.38433 52.5847C7.41866 52.6493 7.4873 52.6816 7.52163 52.7462C7.7276 52.9723 7.93358 53.1661 8.13955 53.3599C8.24254 53.4568 8.34552 53.5537 8.48283 53.6183C8.55149 53.6506 8.58582 53.7152 8.65447 53.7475C8.86044 53.909 9.10074 54.0382 9.34103 54.1673C9.58133 54.2965 9.82162 54.4257 10.0619 54.5226C10.1306 54.5549 10.1649 54.5872 10.2336 54.5872C10.2679 54.5872 10.2679 54.5872 10.3022 54.6195C10.4395 54.6841 10.5768 54.7164 10.7142 54.781C11.4007 55.0717 12.0529 55.2332 12.7052 55.3301ZM12.6022 52.068C12.6709 52.068 12.7395 52.068 12.6022 52.068V52.068ZM16.7216 61.8866C16.6872 61.8866 16.6529 61.9189 16.6529 61.9189C16.6529 61.9189 16.6872 61.8866 16.7216 61.8866C16.7559 61.8543 16.7559 61.8543 16.7216 61.8866C16.7559 61.8543 16.7559 61.8543 16.7216 61.8866ZM18.0603 57.3003C16.4126 57.4295 14.6962 57.4618 13.0485 57.3003C12.6022 57.5264 12.1559 57.8171 11.744 58.1077C11.4694 58.2692 11.2291 58.463 10.9544 58.6245C10.8858 58.6568 10.8171 58.7214 10.7828 58.7537C10.7485 58.786 10.7141 58.8183 10.6798 58.8183C10.5768 58.8829 10.4739 58.9798 10.3709 59.0444C9.61566 59.6258 8.89475 60.2394 8.20819 60.8854C8.24252 60.9177 8.24252 60.9177 8.27685 60.95C8.41416 61.0792 8.55149 61.1761 8.65447 61.273C8.72313 61.3053 8.92909 61.4668 8.68879 61.3053C8.75745 61.3376 8.8261 61.4022 8.89475 61.4345C9.16938 61.6282 9.444 61.7897 9.75295 61.9189C9.89027 61.9835 10.0619 62.0481 10.1992 62.1127C9.92461 61.9835 10.1992 62.1127 10.2336 62.1127C10.3365 62.145 10.4052 62.1773 10.5082 62.2096C10.7828 62.3065 11.0918 62.3711 11.4007 62.4357C11.5724 62.468 11.7097 62.5003 11.8813 62.5326C11.9156 62.5326 11.9499 62.5326 11.9843 62.5326C12.0873 62.5326 12.0529 62.5326 11.9843 62.5326C11.9499 62.5326 11.95 62.5326 11.9156 62.5326C11.9843 62.5326 12.053 62.5326 12.0873 62.5649C12.7395 62.6295 13.3917 62.5972 14.044 62.5326C14.0783 62.5326 14.1126 62.5326 14.147 62.5326C14.2499 62.5326 14.3529 62.5003 14.4216 62.5003C14.5932 62.468 14.7305 62.4357 14.8678 62.4034C15.2111 62.3388 15.5544 62.2419 15.8977 62.145C16.0693 62.0804 16.241 62.0158 16.4126 61.9835C16.4813 61.9512 16.5499 61.9189 16.6186 61.9189C16.6186 61.9189 16.6529 61.8866 16.6872 61.8866H16.7216C17.0305 61.7574 17.3738 61.5959 17.6827 61.4345C18.3007 61.1115 18.9186 60.7562 19.5021 60.3686C19.6738 60.2717 19.8111 60.1425 19.9484 60.0456C19.9827 60.0456 19.9827 60.0133 20.017 59.981C20.0857 59.9164 20.1544 59.8841 20.223 59.8195C20.4976 59.5935 20.8066 59.3674 21.0812 59.1413C21.9394 58.4307 22.729 57.6879 23.5185 56.945C23.3125 56.8158 23.0722 56.6866 22.8663 56.5574C21.2872 56.9127 19.7081 57.1711 18.0603 57.3003ZM22.6946 54.1027C22.7633 54.1673 22.7633 54.1673 22.7633 54.135C22.729 54.135 22.729 54.135 22.6946 54.1027ZM12.5679 52.068H12.6022C12.5679 52.068 12.5679 52.068 12.5679 52.068ZM42.7765 51.0344C40.1676 50.6791 37.6273 49.904 35.2587 48.8381C33.302 47.9338 31.4826 46.8034 29.8692 45.4468C29.2856 46.1251 28.6677 46.7711 27.9812 47.417C25.8185 49.4841 23.2782 51.2282 20.5663 52.5524C20.7723 52.6816 21.0126 52.8431 21.2185 53.0046C21.5275 53.2307 21.8364 53.4568 22.1454 53.6829C22.2827 53.7798 22.42 53.8767 22.5573 54.0059C22.5917 54.0382 22.6603 54.0705 22.6946 54.1027C22.6946 54.1027 22.7633 54.1351 22.7633 54.1673C23.7588 54.8779 24.823 55.5239 25.9901 56.0406C26.1275 56.1052 26.2647 56.1698 26.4021 56.2344H26.4364C26.5051 56.2667 26.5737 56.299 26.6424 56.299C26.917 56.3959 27.1916 56.4928 27.4662 56.5897C28.0498 56.7512 28.6334 56.9127 29.217 57.0419C29.4916 57.1065 29.8005 57.1388 30.0752 57.2034C30.1438 57.2034 30.2468 57.2357 30.3155 57.2357C30.3155 57.2357 30.3498 57.2357 30.3841 57.2357C30.5214 57.2357 30.6244 57.268 30.7617 57.268C31.3453 57.3326 31.9632 57.3649 32.5468 57.3649C33.1304 57.3649 33.7483 57.3649 34.3319 57.3003C34.6408 57.268 34.9498 57.268 35.2587 57.2034C35.3274 57.2034 35.4303 57.1711 35.499 57.1711C35.6363 57.1388 35.7736 57.1388 35.9109 57.1065C37.1124 56.9127 38.3139 56.6543 39.4811 56.3313C40.0646 56.1698 40.6482 55.976 41.2318 55.75C41.5064 55.6531 41.8154 55.5562 42.09 55.427C42.1243 55.427 42.1243 55.427 42.1586 55.3947C42.2273 55.3624 42.2959 55.3301 42.3646 55.2978C42.5019 55.2332 42.6392 55.2009 42.7422 55.1363C43.875 54.6518 44.9735 54.1028 46.0034 53.5214C47.0332 52.94 47.9944 52.2941 48.9556 51.6158C48.9556 51.6158 48.9899 51.5835 49.0242 51.5835C49.0586 51.5512 49.1272 51.5189 49.1959 51.4543C49.3332 51.3574 49.4705 51.2282 49.6422 51.1313C49.7108 51.0667 49.7795 51.0021 49.8481 50.9698C47.5138 51.3251 45.1452 51.3574 42.7765 51.0344ZM21.6648 23.2579C21.6648 20.5449 21.8708 17.8318 22.1454 15.1188C20.3947 14.0206 18.6439 12.8902 16.8932 11.7275C11.3664 8.07776 5.94255 4.26657 0.862002 0.100098C0.0381291 2.19948 -0.0648634 4.52495 0.381401 6.68894C1.34259 11.3076 4.70675 15.1511 8.65447 17.9287C12.5335 20.6418 16.9275 22.4505 21.6648 23.2579ZM28.1185 44.058C28.1871 44.058 28.2214 44.0257 28.2901 43.9934C27.4319 43.0891 26.608 42.1201 25.9215 41.0866C24.6857 41.2158 23.4499 41.2158 22.2141 41.0866C20.8753 40.9574 19.5708 40.7313 18.3006 40.376C17.6141 41.3449 16.8245 42.217 15.8977 42.9922C15.932 43.0245 15.9663 43.0568 16.0007 43.0568C16.035 43.0891 16.1037 43.1213 16.138 43.1536C16.5499 43.4443 16.9619 43.6704 17.4081 43.8642C17.4768 43.8965 17.5454 43.9288 17.5798 43.9611C17.7857 44.0257 17.6484 43.9934 17.5798 43.9611H17.5454C17.6484 43.9934 17.7171 44.0257 17.82 44.058C18.026 44.1226 18.232 44.1872 18.438 44.2518C18.8842 44.381 19.3648 44.4779 19.8111 44.5748C19.9484 44.6071 20.0514 44.6071 20.1887 44.6394C20.429 44.6717 20.2573 44.6394 20.1887 44.6394H20.1544C20.223 44.6394 20.2917 44.6394 20.326 44.6717C20.5663 44.704 20.7723 44.704 21.0126 44.7363C21.4932 44.7686 21.9394 44.7686 22.42 44.7686C22.9006 44.7686 23.3469 44.7686 23.8275 44.7363C24.1364 44.704 24.4454 44.704 24.72 44.6717C24.8916 44.6717 25.0289 44.6394 25.2006 44.6394C25.2349 44.6394 25.3379 44.6394 25.4066 44.6071C25.9901 44.5425 26.5737 44.4456 27.1573 44.2841C27.5349 44.2518 27.8438 44.1549 28.1185 44.058ZM22.0081 31.8493C21.9737 31.8493 21.9737 31.8493 22.0081 31.8493C21.9737 31.8493 22.0081 31.8493 22.0081 31.8493ZM21.9394 31.8493H21.9738C21.9394 31.8493 21.9394 31.8493 21.9051 31.8493H21.9394ZM66.7032 43.0568C66.4286 42.8307 66.1539 42.6046 65.948 42.4754C65.6733 42.2816 65.3987 42.1201 65.1241 41.9586C64.4719 41.6033 63.8196 41.2804 63.2361 41.0866C61.6227 40.5375 59.9063 40.3437 58.2585 40.5375C56.6794 40.7313 55.066 41.2481 53.5212 41.7002C51.8735 42.1847 50.1914 42.6046 48.4407 42.7015C42.3303 43.1214 36.2885 40.4729 33.096 35.499C30.2811 31.1064 30.6587 25.8741 30.6931 20.9325C30.6931 20.8356 30.6931 20.7064 30.6587 20.6418C30.6244 20.5772 30.5558 20.5126 30.4871 20.448C29.0797 19.2853 27.4319 18.3486 25.8528 17.412C25.2692 17.0567 24.6857 16.6691 24.1021 16.3138C24.1021 16.3461 24.1021 16.3461 24.1021 16.3461C23.8618 18.9623 23.7245 21.6107 23.7588 24.2592C23.7588 24.3238 23.7588 24.3884 23.7588 24.453C23.7931 25.8418 23.8618 27.2629 23.9991 28.6517C24.0334 28.9101 24.0678 29.1685 24.0678 29.4269C24.0678 29.5561 24.1021 29.6853 24.1021 29.8145C24.1021 29.8791 24.1021 29.9114 24.1364 29.976C24.1364 30.0083 24.1364 30.0406 24.1364 30.0406C24.2051 30.5573 24.3081 31.0418 24.411 31.5586C24.617 32.5921 24.8573 33.5934 25.1663 34.5946C25.7155 36.4356 26.3677 37.9213 27.3289 39.5363C27.3632 39.5685 27.3633 39.6008 27.3976 39.6331C27.4662 39.73 27.5349 39.8269 27.5692 39.9238C27.8438 40.376 28.1528 40.7959 28.4617 41.1835C28.5304 41.3126 28.6334 41.4095 28.7364 41.5064C28.7707 41.5387 28.7707 41.5387 28.805 41.571C28.805 41.6033 28.8394 41.6356 28.8394 41.6356C29.011 41.8294 29.1826 42.0232 29.3543 42.217C30.1095 43.0245 30.9334 43.7996 31.8259 44.4779C33.6453 45.899 35.9796 47.094 38.1766 47.9015C40.6139 48.7735 43.1198 49.258 45.6944 49.3226C48.578 49.3872 51.4272 48.9027 54.2078 48.2568C56.9883 47.6108 59.7346 46.6096 62.5838 46.222C64.8838 45.899 67.1838 45.9313 69.4494 46.2543C69.4151 46.1897 69.3808 46.1251 69.3465 46.0605C68.5912 44.8978 67.836 43.9934 66.7032 43.0568ZM17.0648 37.9536H17.0992C17.2365 38.0182 17.3738 38.0505 17.5111 38.1151C18.0947 38.3089 18.6783 38.5027 19.2962 38.6642C19.8797 38.8257 20.4976 38.9549 21.0812 39.0518C21.2529 39.0841 21.3902 39.0841 21.5618 39.1164C21.5961 39.1164 21.6991 39.1164 21.7335 39.1487C21.7678 39.1487 21.8021 39.1487 21.8021 39.1487C22.1111 39.181 22.42 39.2133 22.729 39.2456C23.4155 39.2779 24.1364 39.3102 24.823 39.2779C23.9304 37.5338 23.2782 35.7251 22.7633 33.8195C20.8753 33.6257 19.0215 33.335 17.2021 32.8505C16.6872 32.7213 16.1723 32.5598 15.6231 32.3983C14.5932 32.6244 13.5977 32.9151 12.6365 33.2381C12.3962 33.335 12.1216 33.4319 11.8813 33.5288C11.8126 33.5611 11.744 33.5611 11.7097 33.5934H11.6753C11.5724 33.6257 11.435 33.6903 11.3321 33.7549C11.1947 33.8195 11.0918 33.8518 10.9888 33.9163C11.6067 34.5623 12.2932 35.1437 13.0141 35.6928C13.0484 35.7251 13.1171 35.7574 13.0828 35.7574C13.1514 35.7897 13.1858 35.8542 13.2544 35.8865C13.3917 35.9834 13.4947 36.048 13.5977 36.1449C13.838 36.3064 14.1126 36.4679 14.3529 36.6294C14.8678 36.9524 15.4171 37.2108 15.9663 37.4692C16.241 37.5983 16.5156 37.7275 16.7902 37.8244C16.9275 37.889 16.9962 37.9213 17.0648 37.9536ZM13.0485 35.7574C13.0828 35.7574 13.0828 35.7897 13.0828 35.7897C13.0485 35.7897 13.0141 35.7574 13.0141 35.7251C13.0484 35.7251 13.0485 35.7574 13.0485 35.7574ZM13.632 29.6853C13.6664 29.6853 13.735 29.7176 13.7693 29.7499C13.8723 29.7822 13.941 29.8145 14.044 29.8468C14.2499 29.9114 14.4216 30.0083 14.6275 30.0729C15.0395 30.2344 15.4514 30.3636 15.829 30.4927C16.6529 30.7511 17.4768 30.9772 18.3006 31.171C19.1588 31.3648 20.017 31.5586 20.8753 31.6878C21.0812 31.7201 21.3215 31.7524 21.5275 31.7847C21.6305 31.7847 21.7334 31.817 21.8364 31.817C21.8708 31.817 21.8708 31.817 21.9051 31.817C21.8364 31.817 21.8021 31.7847 22.0081 31.817C22.1454 31.817 22.2484 31.8493 22.3857 31.8493C22.1111 30.3312 21.9051 28.8132 21.8021 27.2952C21.7335 26.5846 21.7335 25.8741 21.6991 25.1312C18.8499 24.6791 16.0693 23.8716 13.4261 22.7412C11.7097 21.9983 9.99326 21.0939 8.41417 20.0604C7.72761 20.0281 7.00671 20.0281 6.32015 20.0927C6.21717 20.0927 6.11419 20.0927 6.04553 20.125C6.32015 20.0604 6.04553 20.125 5.97687 20.125C5.80523 20.1573 5.6336 20.1896 5.49629 20.1896C5.15301 20.2542 4.80972 20.3188 4.43211 20.4157C4.08883 20.5126 3.74555 20.6095 3.40227 20.7387C3.23063 20.8033 3.09333 20.8679 2.92169 20.9002C3.19631 20.8356 2.88736 20.9002 2.81871 20.9325C2.75005 20.9648 2.64705 20.9971 2.54406 21.0617C2.26944 21.1908 1.96049 21.32 1.68586 21.4815C2.68138 22.5797 3.77987 23.5809 4.94703 24.5176C5.29031 24.776 5.59927 25.0343 5.94255 25.2927C6.04553 25.3573 6.14851 25.4219 6.21717 25.5188C6.2515 25.5511 6.28582 25.5511 6.32015 25.5834C6.49179 25.6803 6.62911 25.8095 6.80075 25.9064C7.48731 26.3909 8.2082 26.843 8.92909 27.2629C10.4052 28.135 11.9499 28.8778 13.529 29.5238C13.5977 29.6853 13.5977 29.6853 13.632 29.6853ZM55.2033 26.4555C55.1003 26.6493 54.963 26.843 54.86 27.0368C54.963 26.9399 55.066 26.8753 55.2033 26.7784C56.9197 25.5188 58.6018 24.0654 60.0435 22.5151C60.2838 22.2567 60.4898 21.9983 60.7301 21.7399C60.7988 21.6753 60.8674 21.5784 60.9361 21.4815C60.9361 21.4815 60.9361 21.4815 60.9361 21.4492C60.9361 21.4492 60.9361 21.4169 60.9704 21.4169C61.0734 21.2877 61.1764 21.1585 61.2794 21.0294C61.6913 20.4803 62.1032 19.9312 62.4808 19.3498C63.2361 18.1871 63.9569 16.9921 64.5749 15.7647C64.8838 15.1511 65.1928 14.5374 65.4674 13.8914C65.4674 13.8591 65.5017 13.8268 65.5017 13.7622C65.536 13.6654 65.5704 13.6008 65.6047 13.5039C65.6733 13.3101 65.7763 13.1486 65.845 12.9871C66.0166 12.5672 66.2226 12.1796 66.3942 11.7598C67.0465 10.3709 67.7674 8.98211 68.6942 7.72248C69.1405 7.10881 69.6554 6.49515 70.1703 5.94608C70.1703 5.94608 70.1703 5.91378 70.136 5.91378C70.033 5.71999 69.9644 5.5585 69.8614 5.36471C69.6554 5.00943 69.4494 4.68645 69.2091 4.36346C69.1405 4.26657 69.0718 4.20197 69.0032 4.10508C68.9689 4.07278 68.9345 4.04048 68.9002 4.00818C68.7629 3.84669 68.6256 3.7175 68.4883 3.55601C68.3509 3.39452 68.1793 3.26532 68.0077 3.10383C67.8703 3.13613 67.7674 3.16843 67.6301 3.23303C67.4927 3.26532 67.3897 3.32992 67.2524 3.36222C67.2181 3.36222 67.2181 3.39452 67.1838 3.39452C67.1151 3.42682 67.0808 3.45911 67.0122 3.45911C66.4629 3.6852 65.948 3.97589 65.4674 4.29887C65.3644 4.36347 65.1928 4.42806 65.1584 4.52496C65.2614 4.42806 65.2957 4.42806 65.1928 4.49266C65.1584 4.52495 65.1241 4.55725 65.0898 4.55725C65.0211 4.58955 64.9868 4.62185 64.9181 4.68645C64.6778 4.84794 64.4719 5.04173 64.2659 5.23552C63.8196 5.62309 63.4077 6.07527 63.0301 6.49515C63.0301 6.52744 62.9958 6.52745 62.9958 6.55975C62.9614 6.59204 62.9271 6.62434 62.9271 6.65664C62.8585 6.75353 62.7555 6.85043 62.6868 6.97962C62.5152 7.17341 62.3779 7.3995 62.2405 7.62558C61.9659 8.04546 61.6913 8.49764 61.451 8.94981C61.2794 9.2405 61.1421 9.56348 61.0047 9.85417C60.9704 9.91876 60.9361 9.98336 60.9361 10.0157C60.9361 10.0157 60.9361 10.048 60.9017 10.048C60.8331 10.1771 60.7988 10.3063 60.7301 10.4355C60.4898 11.0169 60.2839 11.566 60.0779 12.1473C59.2883 14.4405 58.7048 16.8306 58.0182 19.1561C57.6063 20.5772 57.1257 21.9983 56.5764 23.3871C56.1988 24.5499 55.7525 25.5188 55.2033 26.4555ZM46.0034 34.8207C46.0377 34.8207 46.0377 34.8207 46.0034 34.8207C46.0377 34.8207 46.0377 34.8207 46.0034 34.8207C46.0034 34.8207 46.0377 34.8207 46.0034 34.8207ZM42.5706 33.5288C42.6049 33.5288 42.6049 33.5288 42.5706 33.5288C42.5706 33.5288 42.5362 33.5288 42.5362 33.4965C42.5706 33.4965 42.5706 33.5288 42.5706 33.5288ZM42.6392 33.5611C42.6049 33.5288 42.6049 33.5288 42.6049 33.5288C42.6049 33.5611 42.6392 33.5611 42.6392 33.5611ZM82.4941 3.6206C82.4598 3.6206 82.4598 3.5883 82.4254 3.5883C82.1165 3.49141 81.7732 3.39452 81.4299 3.32992C81.3956 3.32992 81.3613 3.32992 81.2926 3.29762C81.224 3.29762 81.1553 3.29762 81.121 3.26532C80.9493 3.23302 80.7777 3.23303 80.6061 3.23303C80.2628 3.23303 79.8852 3.23302 79.5419 3.26532C79.4732 3.26532 79.4389 3.26532 79.3703 3.29762C79.3359 3.29762 79.2329 3.32992 79.1986 3.32992C79.027 3.36222 78.8553 3.39451 78.6837 3.42681C78.3404 3.49141 77.9971 3.5883 77.6539 3.6852C77.2762 3.78209 76.8986 3.91129 76.5553 4.04048C76.5553 4.04048 76.521 4.07278 76.4867 4.07278C76.624 4.04048 76.4867 4.07278 76.418 4.10508C76.3494 4.13738 76.2464 4.16967 76.1777 4.20197C76.0061 4.26657 75.8344 4.36346 75.6628 4.42806C74.9762 4.75104 74.2897 5.13862 73.6718 5.5585C73.5688 5.62309 73.5001 5.68769 73.3972 5.75229L73.3628 5.78458C73.3972 5.75229 73.4315 5.75229 73.3285 5.81689C73.1912 5.91378 73.0539 6.04297 72.9166 6.13987C72.6076 6.36596 72.333 6.62434 72.0584 6.88273C71.7837 7.14111 71.5091 7.4318 71.2345 7.72248C71.1658 7.81937 71.0972 7.88397 71.0285 7.98087C70.9942 8.01316 70.9942 8.04546 70.9599 8.07776C70.8569 8.20695 70.9256 8.11006 70.9599 8.07776C70.8226 8.20695 70.7196 8.36844 70.6166 8.52994C70.136 9.1436 69.7241 9.78957 69.3465 10.4678C68.9689 11.1461 68.6256 11.8244 68.2823 12.5026C68.1106 12.8579 67.939 13.2132 67.8017 13.5685C67.7674 13.6008 67.7674 13.6654 67.733 13.6977C67.6987 13.7623 67.6644 13.8591 67.6301 13.9237C67.5614 14.0852 67.4927 14.279 67.3898 14.4405C66.8062 15.7647 66.1883 17.0567 65.4674 18.3163C64.0256 20.8679 62.1376 23.3225 59.9062 25.3573C58.7391 26.4232 57.4689 27.3598 56.0958 28.1673C54.6197 29.0393 52.972 29.5884 51.4272 30.3313C54.3794 25.2604 56.0615 19.6405 57.4689 14.0852C57.4689 14.0529 57.4689 14.0206 57.4689 13.956C57.4689 13.9237 57.469 13.8914 57.4346 13.8591C56.851 12.4057 55.4779 11.0169 53.9675 10.3709C53.7959 10.3063 51.9078 9.62808 51.8392 9.82186C51.3929 11.1138 51.1869 12.5349 50.878 13.8591C50.466 15.5064 50.1227 17.1859 49.6422 18.8008C49.0242 20.8356 48.2347 22.8058 47.4108 24.776C46.6556 26.5847 45.7288 28.3611 44.7332 30.0729C43.7377 31.7524 42.7079 33.4965 41.4721 34.9822C41.3004 35.176 42.5019 35.9834 42.6392 36.048C43.0855 36.3064 43.5661 36.5002 44.081 36.6617C44.4243 36.7586 44.7676 36.8555 45.1452 36.9201C45.2482 36.9201 45.3511 36.9524 45.4541 36.9524C45.6601 36.9524 45.5914 36.9524 45.5228 36.9524H45.5571C45.7288 36.9847 45.9347 36.9847 46.1064 36.9847C46.484 37.017 46.8616 37.017 47.2392 37.017C47.6168 37.017 48.0287 36.9847 48.4063 36.9524C48.5093 36.9524 48.6123 36.9201 48.7153 36.9201C48.7496 36.9201 48.9556 36.8878 48.7839 36.9201C48.6123 36.9524 48.8183 36.9201 48.8526 36.9201C49.0242 36.8878 49.1959 36.8555 49.3675 36.8555C50.1571 36.7263 50.9123 36.5648 51.6675 36.3387C58.3958 34.53 64.4375 30.7834 69.1748 25.971C69.7927 25.325 70.4106 24.6791 70.9942 24.0008C71.0629 23.9039 71.1658 23.807 71.2345 23.7101C71.2688 23.6778 71.3032 23.6455 71.3032 23.6132C71.4405 23.4517 71.5778 23.2579 71.7151 23.0964C71.9897 22.7412 72.2643 22.3536 72.539 21.9983C74.633 19.0592 76.2807 15.8939 77.9285 12.7287C79.4732 9.72497 81.018 6.65664 83.112 3.97589C82.9747 3.91129 82.8374 3.81439 82.6657 3.74979C82.6657 3.6852 82.5284 3.6529 82.4941 3.6206ZM46.072 34.853H46.1064C46.072 34.853 46.072 34.853 46.072 34.853ZM63.442 48.1276C63.442 48.1276 67.1151 47.417 69.827 48.1276C69.827 48.1276 70.5136 50.6145 70.3763 52.3909C70.3763 52.3909 68.5912 49.0965 63.442 48.1276Z" fill="url(#paint0_linear)"/>
<path d="M109.105 24.8531C109.91 25.7198 110.422 26.9017 110.422 28.1624C110.422 30.0535 109.398 31.7082 107.861 32.4961C107.495 32.7325 107.056 32.8113 106.617 32.8901C106.544 32.8901 106.544 32.8901 106.471 32.8901H98.6425V41.006H95.7159V23.356H106.032C107.129 23.4348 108.227 23.9075 109.105 24.8531ZM106.544 29.6595C107.056 29.4231 107.422 28.8716 107.422 28.1624C107.422 27.6108 107.129 27.2169 106.983 26.9805C106.764 26.7441 106.471 26.5077 105.959 26.5077H98.5693V29.7383H105.959C106.178 29.8171 106.398 29.8171 106.544 29.6595Z" fill="#EA7A57"/>
<path d="M116.304 41.006V23.356H119.245V41.006H116.304Z" fill="#EA7A57"/>
<path d="M142.056 32.181C142.056 34.3872 141.297 36.2783 140.082 37.8542H144.245V41.006H133.706H133.63C128.923 41.006 125.128 37.0662 125.128 32.181C125.128 27.2957 128.923 23.356 133.63 23.356C138.26 23.356 142.056 27.2957 142.056 32.181ZM139.019 32.181C139.019 29.0292 136.59 26.5077 133.554 26.5077C130.517 26.5077 128.088 29.0292 128.088 32.181C128.088 35.3327 130.517 37.8542 133.554 37.8542H133.706C136.666 37.7754 139.019 35.2539 139.019 32.181Z" fill="#EA7A57"/>
<path d="M166.304 23.356V32.181C166.304 37.0662 162.693 41.006 158.216 41.006C153.739 41.006 150.128 37.0662 150.128 32.181V23.356H153.016V32.181C153.016 35.3327 155.327 37.8542 158.216 37.8542C161.105 37.8542 163.416 35.3327 163.416 32.181V23.356H166.304Z" fill="#EA7A57"/>
<path d="M189.834 41.006H186.351L184.803 37.8542L181.01 30.2899L177.217 37.8542L175.669 41.006H172.187L173.735 37.8542L181.01 23.356L188.286 37.8542L189.834 41.006Z" fill="#EA7A57"/>
<path d="M207.647 28.2412V28.1624C207.647 27.2957 207.023 26.5865 206.26 26.5865H199.947C199.184 26.5865 198.56 27.2957 198.56 28.1624V28.2412C198.56 29.108 199.184 29.8171 199.947 29.8171H205.497C206.953 29.8171 208.202 30.5263 209.104 31.6294C209.173 31.7082 209.243 31.787 209.312 31.8658C210.006 32.8113 210.422 34.072 210.422 35.4115C210.422 38.4845 208.202 41.006 205.497 41.006H200.641C197.936 41.006 195.716 38.4845 195.716 35.4115H198.491C198.491 36.751 199.462 37.8542 200.641 37.8542H205.497C206.676 37.8542 207.647 36.751 207.647 35.4115C207.647 34.072 206.676 32.9689 205.497 32.9689H199.947C198.837 32.9689 197.797 32.4961 197.034 31.6294C196.826 31.393 196.687 31.1566 196.479 30.8414C195.993 30.0535 195.785 29.1868 195.785 28.1624V28.0836C195.785 25.4834 197.658 23.356 199.947 23.356H206.26C208.549 23.356 210.422 25.4834 210.422 28.0836V28.1624L207.647 28.2412Z" fill="#EA7A57"/>
<path d="M228.235 28.2412V28.1624C228.235 27.2957 227.611 26.5865 226.848 26.5865H220.536C219.773 26.5865 219.148 27.2957 219.148 28.1624V28.2412C219.148 29.108 219.773 29.8171 220.536 29.8171H226.085C227.542 29.8171 228.79 30.5263 229.692 31.6294C229.761 31.7082 229.831 31.787 229.9 31.8658C230.594 32.8113 231.01 34.072 231.01 35.4115C231.01 38.4845 228.79 41.006 226.085 41.006H221.229C218.524 41.006 216.304 38.4845 216.304 35.4115H219.079C219.079 36.751 220.05 37.8542 221.229 37.8542H226.085C227.264 37.8542 228.235 36.751 228.235 35.4115C228.235 34.072 227.264 32.9689 226.085 32.9689H220.536C219.426 32.9689 218.385 32.4961 217.622 31.6294C217.414 31.393 217.275 31.1566 217.067 30.8414C216.582 30.0535 216.374 29.1868 216.374 28.1624V28.0836C216.374 25.4834 218.246 23.356 220.536 23.356H226.848C229.137 23.356 231.01 25.4834 231.01 28.0836V28.1624L228.235 28.2412Z" fill="#EA7A57"/>
<path d="M254.539 32.181C254.539 37.0662 250.6 41.006 245.716 41.006C240.831 41.006 236.892 37.0662 236.892 32.181C236.892 27.2957 240.831 23.356 245.716 23.356C250.6 23.356 254.539 27.2957 254.539 32.181ZM251.388 32.181C251.388 29.0292 248.867 26.5077 245.716 26.5077C242.565 26.5077 240.044 29.0292 240.044 32.181C240.044 35.3327 242.565 37.8542 245.716 37.8542C248.867 37.7754 251.388 35.2539 251.388 32.181Z" fill="#EA7A57"/>
<defs>
<linearGradient id="paint0_linear" x1="0.111139" y1="31.3742" x2="83.1376" y2="31.3742" gradientUnits="userSpaceOnUse">
<stop stop-color="#68BBC1"/>
<stop offset="0.2057" stop-color="#97B9A1"/>
<stop offset="0.4774" stop-color="#EDB667"/>
<stop offset="0.9865" stop-color="#E85E4F"/>
</linearGradient>
</defs>
</svg>
