<?xml version="1.0" encoding="UTF-8" standalone="no"?>
<svg
   xmlns:dc="http://purl.org/dc/elements/1.1/"
   xmlns:cc="http://creativecommons.org/ns#"
   xmlns:rdf="http://www.w3.org/1999/02/22-rdf-syntax-ns#"
   xmlns:svg="http://www.w3.org/2000/svg"
   xmlns="http://www.w3.org/2000/svg"
   xmlns:sodipodi="http://sodipodi.sourceforge.net/DTD/sodipodi-0.dtd"
   xmlns:inkscape="http://www.inkscape.org/namespaces/inkscape"
   width="158.8231"
   height="17.65"
   viewBox="0 0 158.8231 17.65"
   version="1.1"
   id="svg31"
   sodipodi:docname="piquasso_logo_only_text.svg"
   inkscape:version="0.92.5 (2060ec1f9f, 2020-04-08)"
   style="fill:none">
  <metadata
     id="metadata35">
    <rdf:RDF>
      <cc:Work
         rdf:about="">
        <dc:format>image/svg+xml</dc:format>
        <dc:type
           rdf:resource="http://purl.org/dc/dcmitype/StillImage" />
        <dc:title></dc:title>
      </cc:Work>
    </rdf:RDF>
  </metadata>
  <sodipodi:namedview
     pagecolor="#ffffff"
     bordercolor="#666666"
     borderopacity="1"
     objecttolerance="10"
     gridtolerance="10"
     guidetolerance="10"
     inkscape:pageopacity="0"
     inkscape:pageshadow="2"
     inkscape:window-width="1848"
     inkscape:window-height="1016"
     id="namedview33"
     showgrid="false"
     inkscape:zoom="3.8488793"
     inkscape:cx="-2.9039961"
     inkscape:cy="11.608558"
     inkscape:window-x="72"
     inkscape:window-y="27"
     inkscape:window-maximized="1"
     inkscape:current-layer="svg31"
     fit-margin-top="0"
     fit-margin-left="0"
     fit-margin-right="0"
     fit-margin-bottom="0" />
  <path
     d="m 13.3891,1.4971 c 0.805,0.8667 1.317,2.0486 1.317,3.3093 0,1.8911 -1.024,3.5458 -2.561,4.3337 -0.366,0.2364 -0.805,0.3152 -1.244,0.394 -0.073,0 -0.073,0 -0.146,0 H 2.9266 V 17.65 H 0 V 0 h 10.3161 c 1.097,0.0788 2.195,0.5515 3.073,1.4971 z m -2.561,4.8064 c 0.512,-0.2364 0.878,-0.7879 0.878,-1.4971 0,-0.5516 -0.293,-0.9455 -0.439,-1.1819 -0.219,-0.2364 -0.512,-0.4728 -1.024,-0.4728 H 2.8534 v 3.2306 h 7.3897 c 0.219,0.0788 0.439,0.0788 0.585,-0.0788 z"
     id="path4"
     inkscape:export-xdpi="951.84125"
     inkscape:export-ydpi="951.84125"
     inkscape:connector-curvature="0"
     style="fill:#ea7a57" />
  <path
     d="M 20.5881,17.65 V 0 h 2.941 v 17.65 z"
     id="path6"
     inkscape:export-xdpi="951.84125"
     inkscape:export-ydpi="951.84125"
     inkscape:connector-curvature="0"
     style="fill:#ea7a57" />
  <path
     d="m 46.3401,8.825 c 0,2.2062 -0.759,4.0973 -1.974,5.6732 h 4.163 V 17.65 h -10.539 -0.076 c -4.707,0 -8.502,-3.9398 -8.502,-8.825 0,-4.8853 3.795,-8.825 8.502,-8.825 4.63,0 8.426,3.9397 8.426,8.825 z m -3.037,0 c 0,-3.1518 -2.429,-5.6733 -5.465,-5.6733 -3.037,0 -5.466,2.5215 -5.466,5.6733 0,3.1517 2.429,5.6732 5.466,5.6732 h 0.152 c 2.96,-0.0788 5.313,-2.6003 5.313,-5.6732 z"
     id="path8"
     inkscape:export-xdpi="951.84125"
     inkscape:export-ydpi="951.84125"
     inkscape:connector-curvature="0"
     style="fill:#ea7a57" />
  <path
     d="m 70.5881,0 v 8.825 c 0,4.8852 -3.611,8.825 -8.088,8.825 -4.477,0 -8.088,-3.9398 -8.088,-8.825 V 0 h 2.888 v 8.825 c 0,3.1517 2.311,5.6732 5.2,5.6732 2.889,0 5.2,-2.5215 5.2,-5.6732 V 0 Z"
     id="path10"
     inkscape:export-xdpi="951.84125"
     inkscape:export-ydpi="951.84125"
     inkscape:connector-curvature="0"
     style="fill:#ea7a57" />
  <path
     d="m 94.1181,17.65 h -3.483 l -1.548,-3.1518 -3.793,-7.5643 -3.793,7.5643 -1.548,3.1518 h -3.482 L 78.0191,14.4982 85.2941,0 l 7.276,14.4982 z"
     id="path12"
     inkscape:export-xdpi="951.84125"
     inkscape:export-ydpi="951.84125"
     inkscape:connector-curvature="0"
     style="fill:#ea7a57" />
  <path
     d="M 111.9311,4.8852 V 4.8064 c 0,-0.8667 -0.624,-1.5759 -1.387,-1.5759 h -6.313 c -0.763,0 -1.387,0.7092 -1.387,1.5759 v 0.0788 c 0,0.8668 0.624,1.5759 1.387,1.5759 h 5.55 c 1.456,0 2.705,0.7092 3.607,1.8123 0.069,0.0788 0.139,0.1576 0.208,0.2364 0.694,0.9455 1.11,2.2062 1.11,3.5457 0,3.073 -2.22,5.5945 -4.925,5.5945 h -4.856 c -2.705,0 -4.925,-2.5215 -4.925,-5.5945 h 2.775 c 0,1.3395 0.971,2.4427 2.15,2.4427 h 4.856 c 1.179,0 2.15,-1.1032 2.15,-2.4427 0,-1.3395 -0.971,-2.4426 -2.15,-2.4426 h -5.55 c -1.11,0 -2.15,-0.4728 -2.913,-1.3395 -0.208,-0.2364 -0.347,-0.4728 -0.555,-0.788 -0.486,-0.7879 -0.694,-1.6546 -0.694,-2.679 V 4.7276 c 0,-2.6002 1.873,-4.7276 4.162,-4.7276 h 6.313 c 2.289,0 4.162,2.1274 4.162,4.7276 v 0.0788 z"
     id="path14"
     inkscape:export-xdpi="951.84125"
     inkscape:export-ydpi="951.84125"
     inkscape:connector-curvature="0"
     style="fill:#ea7a57" />
  <path
     d="M 132.5191,4.8852 V 4.8064 c 0,-0.8667 -0.624,-1.5759 -1.387,-1.5759 h -6.312 c -0.763,0 -1.388,0.7092 -1.388,1.5759 v 0.0788 c 0,0.8668 0.625,1.5759 1.388,1.5759 h 5.549 c 1.457,0 2.705,0.7092 3.607,1.8123 0.069,0.0788 0.139,0.1576 0.208,0.2364 0.694,0.9455 1.11,2.2062 1.11,3.5457 0,3.073 -2.22,5.5945 -4.925,5.5945 h -4.856 c -2.705,0 -4.925,-2.5215 -4.925,-5.5945 h 2.775 c 0,1.3395 0.971,2.4427 2.15,2.4427 h 4.856 c 1.179,0 2.15,-1.1032 2.15,-2.4427 0,-1.3395 -0.971,-2.4426 -2.15,-2.4426 h -5.549 c -1.11,0 -2.151,-0.4728 -2.914,-1.3395 -0.208,-0.2364 -0.347,-0.4728 -0.555,-0.788 -0.485,-0.7879 -0.693,-1.6546 -0.693,-2.679 V 4.7276 c 0,-2.6002 1.872,-4.7276 4.162,-4.7276 h 6.312 c 2.289,0 4.162,2.1274 4.162,4.7276 v 0.0788 z"
     id="path16"
     inkscape:export-xdpi="951.84125"
     inkscape:export-ydpi="951.84125"
     inkscape:connector-curvature="0"
     style="fill:#ea7a57" />
  <path
     d="m 158.8231,8.825 c 0,4.8852 -3.939,8.825 -8.823,8.825 -4.885,0 -8.824,-3.9398 -8.824,-8.825 0,-4.8853 3.939,-8.825 8.824,-8.825 4.884,0 8.823,3.9397 8.823,8.825 z m -3.151,0 c 0,-3.1518 -2.521,-5.6733 -5.672,-5.6733 -3.151,0 -5.672,2.5215 -5.672,5.6733 0,3.1517 2.521,5.6732 5.672,5.6732 3.151,-0.0788 5.672,-2.6003 5.672,-5.6732 z"
     id="path18"
     inkscape:export-xdpi="951.84125"
     inkscape:export-ydpi="951.84125"
     inkscape:connector-curvature="0"
     style="fill:#ea7a57" />
  <defs
     id="defs29">
    <linearGradient
       id="paint0_linear"
       x1="0.111139"
       y1="31.374201"
       x2="83.137604"
       y2="31.374201"
       gradientUnits="userSpaceOnUse">
      <stop
         stop-color="#68BBC1"
         id="stop20" />
      <stop
         offset="0.2057"
         stop-color="#97B9A1"
         id="stop22" />
      <stop
         offset="0.4774"
         stop-color="#EDB667"
         id="stop24" />
      <stop
         offset="0.9865"
         stop-color="#E85E4F"
         id="stop26" />
    </linearGradient>
  </defs>
</svg>
