<svg width="186" height="186" viewBox="0 0 186 186" fill="none" xmlns="http://www.w3.org/2000/svg">
<path d="M28.898 127.386C28.975 127.386 28.975 127.386 28.898 127.386C28.898 127.386 28.7442 127.386 28.898 127.386ZM28.2057 127.311C28.4365 127.311 28.5903 127.386 28.8211 127.386H29.0519C29.3597 127.386 29.6674 127.46 29.9752 127.46C30.7445 127.535 31.437 127.609 32.2063 127.609C35.2837 127.758 38.438 127.609 41.5155 127.237C41.9001 127.162 42.3617 127.162 42.7464 127.088C42.7464 127.088 42.7464 127.088 42.8234 127.088C42.8234 127.088 42.8234 127.088 42.9003 127.088C43.0542 127.088 43.285 127.013 43.4388 127.013C44.2082 126.939 45.0545 126.79 45.8238 126.641C45.9008 126.641 45.9777 126.641 46.0547 126.567C45.9008 126.418 45.67 126.269 45.5161 126.12C45.4392 126.12 45.4392 126.046 45.3622 125.971C45.2084 125.897 45.0545 125.748 44.9006 125.673C44.2852 125.227 43.7466 124.854 43.1311 124.408C41.9001 123.589 40.5153 122.844 39.1305 122.249H39.0535C37.4379 121.727 35.7453 121.206 34.0527 120.759C32.2063 120.313 30.3598 119.941 28.5134 119.717C28.5134 119.717 28.0518 119.643 27.8979 119.643C27.744 119.643 27.6671 119.643 27.5132 119.568C27.0516 119.494 26.6669 119.494 26.2053 119.419C25.2821 119.345 24.282 119.27 23.3587 119.196C21.5123 119.122 19.5889 119.122 17.7424 119.196C16.8961 119.196 15.9729 119.27 15.1267 119.345C15.2805 119.643 15.4344 119.941 15.6652 120.164C15.8191 120.387 16.0498 120.685 16.2037 120.908L16.2807 120.983C16.3576 121.132 16.5115 121.206 16.5884 121.355C17.05 121.876 17.5117 122.323 17.9733 122.77C18.2041 122.993 18.4349 123.216 18.7426 123.365C18.8965 123.44 18.9734 123.589 19.1273 123.663C19.5889 124.035 20.1275 124.333 20.666 124.631C21.2046 124.929 21.7431 125.227 22.2816 125.45C22.4355 125.524 22.5124 125.599 22.6663 125.599C22.7432 125.599 22.7432 125.599 22.8202 125.673C23.1279 125.822 23.4357 125.897 23.7434 126.046C25.2821 126.716 26.7439 127.088 28.2057 127.311ZM27.9749 119.792C28.1287 119.792 28.2826 119.792 27.9749 119.792V119.792ZM37.2071 142.425C37.1302 142.425 37.0532 142.499 37.0532 142.499C37.0532 142.499 37.1302 142.425 37.2071 142.425C37.284 142.35 37.284 142.35 37.2071 142.425C37.284 142.35 37.284 142.35 37.2071 142.425ZM40.2076 131.853C36.5147 132.151 32.6679 132.225 28.975 131.853C27.9749 132.374 26.9747 133.044 26.0515 133.714C25.436 134.086 24.8974 134.533 24.2819 134.905C24.1281 134.98 23.9742 135.129 23.8973 135.203C23.8203 135.277 23.7434 135.352 23.6665 135.352C23.4356 135.501 23.2049 135.724 22.9741 135.873C21.2815 137.213 19.6658 138.628 18.1271 140.117C18.204 140.191 18.204 140.191 18.281 140.266C18.5887 140.563 18.8965 140.787 19.1273 141.01C19.2812 141.085 19.7428 141.457 19.2042 141.085C19.3581 141.159 19.5119 141.308 19.6658 141.382C20.2813 141.829 20.8968 142.201 21.5892 142.499C21.8969 142.648 22.2816 142.797 22.5894 142.946C21.9739 142.648 22.5894 142.946 22.6663 142.946C22.8971 143.02 23.051 143.095 23.2818 143.169C23.8973 143.393 24.5897 143.542 25.2821 143.69C25.6668 143.765 25.9745 143.839 26.3592 143.914C26.4361 143.914 26.5131 143.914 26.59 143.914C26.8208 143.914 26.7439 143.914 26.59 143.914C26.5131 143.914 26.5131 143.914 26.4362 143.914C26.59 143.914 26.7439 143.914 26.8208 143.988C28.2826 144.137 29.7443 144.063 31.2061 143.914C31.283 143.914 31.36 143.914 31.437 143.914C31.6678 143.914 31.8986 143.839 32.0524 143.839C32.4371 143.765 32.7448 143.69 33.0526 143.616C33.8219 143.467 34.5913 143.244 35.3606 143.02C35.7453 142.871 36.13 142.723 36.5147 142.648C36.6685 142.574 36.8224 142.499 36.9763 142.499C36.9763 142.499 37.0532 142.425 37.1301 142.425H37.2071C37.8995 142.127 38.6689 141.755 39.3613 141.382C40.7461 140.638 42.1309 139.819 43.4388 138.926C43.8235 138.702 44.1313 138.404 44.439 138.181C44.5159 138.181 44.5159 138.107 44.5929 138.032C44.7467 137.883 44.9006 137.809 45.0545 137.66C45.6699 137.139 46.3624 136.618 46.9779 136.096C48.9012 134.458 50.6708 132.746 52.4403 131.034C51.9787 130.736 51.4401 130.438 50.9785 130.14C47.4395 130.959 43.9004 131.555 40.2076 131.853ZM50.5938 124.482C50.7477 124.631 50.7477 124.631 50.7477 124.556C50.6708 124.556 50.6708 124.556 50.5938 124.482ZM27.8979 119.792H27.9749C27.8979 119.792 27.8979 119.792 27.8979 119.792ZM95.601 117.409C89.7539 116.59 84.0607 114.803 78.7522 112.347C74.3669 110.262 70.2893 107.656 66.6733 104.529C65.3654 106.093 63.9806 107.582 62.4419 109.071C57.595 113.836 51.9017 117.856 45.8238 120.908C46.2854 121.206 46.824 121.578 47.2856 121.951C47.978 122.472 48.6705 122.993 49.3629 123.514C49.6706 123.738 49.9784 123.961 50.2861 124.259C50.363 124.333 50.5169 124.408 50.5938 124.482C50.5938 124.482 50.7477 124.556 50.7477 124.631C52.9788 126.269 55.3638 127.758 57.9796 128.949C58.2874 129.098 58.5951 129.247 58.9028 129.396H58.9798C59.1337 129.47 59.2875 129.545 59.4414 129.545C60.0569 129.768 60.6724 129.991 61.2879 130.215C62.5958 130.587 63.9036 130.959 65.2115 131.257C65.827 131.406 66.5194 131.48 67.1349 131.629C67.2888 131.629 67.5196 131.704 67.6735 131.704C67.6735 131.704 67.7504 131.704 67.8274 131.704C68.1351 131.704 68.3659 131.778 68.6736 131.778C69.9815 131.927 71.3664 132.002 72.6743 132.002C73.9822 132.002 75.367 132.002 76.6749 131.853C77.3673 131.778 78.0598 131.778 78.7522 131.629C78.9061 131.629 79.1368 131.555 79.2907 131.555C79.5984 131.48 79.9062 131.48 80.2139 131.406C82.9067 130.959 85.5994 130.364 88.2152 129.619C89.5231 129.247 90.831 128.8 92.1389 128.279C92.7544 128.056 93.4468 127.832 94.0623 127.535C94.1392 127.535 94.1392 127.535 94.2162 127.46C94.37 127.386 94.5239 127.311 94.6778 127.237C94.9855 127.088 95.2933 127.013 95.5241 126.864C98.0629 125.748 100.525 124.482 102.833 123.142C105.141 121.802 107.295 120.313 109.449 118.749C109.449 118.749 109.526 118.675 109.603 118.675C109.68 118.6 109.834 118.526 109.988 118.377C110.296 118.154 110.603 117.856 110.988 117.633C111.142 117.484 111.296 117.335 111.45 117.26C106.218 118.079 100.91 118.154 95.601 117.409ZM48.2858 53.3814C48.2858 47.1275 48.7474 40.8736 49.3629 34.6197C45.4392 32.0884 41.5155 29.4826 37.5918 26.8024C25.2052 18.3894 13.0494 9.60418 1.66297 0C-0.183476 4.83931 -0.414301 10.1998 0.585858 15.188C2.74005 25.8345 10.2797 34.6942 19.1273 41.0969C27.821 47.3508 37.6687 51.5201 48.2858 53.3814ZM62.7496 101.328C62.9035 101.328 62.9804 101.253 63.1343 101.179C61.2109 99.0943 59.3645 96.8607 57.8258 94.4783C55.0561 94.7761 52.2864 94.7761 49.5168 94.4783C46.5163 94.1805 43.5927 93.6593 40.7461 92.8404C39.2074 95.0739 37.4379 97.0841 35.3606 98.8709C35.4376 98.9454 35.5145 99.0198 35.5914 99.0198C35.6684 99.0943 35.8223 99.1687 35.8992 99.2432C36.8224 99.9132 37.7456 100.434 38.7458 100.881C38.8997 100.956 39.0536 101.03 39.1305 101.104C39.5921 101.253 39.2844 101.179 39.1305 101.104H39.0535C39.2843 101.179 39.4382 101.253 39.669 101.328C40.1306 101.477 40.5923 101.626 41.0539 101.774C42.054 102.072 43.1311 102.296 44.1313 102.519C44.439 102.593 44.6698 102.593 44.9776 102.668C45.5161 102.742 45.1314 102.668 44.9776 102.668H44.9006C45.0545 102.668 45.2084 102.668 45.2853 102.742C45.8239 102.817 46.2855 102.817 46.824 102.891C47.9011 102.966 48.9013 102.966 49.9784 102.966C51.0554 102.966 52.0556 102.966 53.1327 102.891C53.8251 102.817 54.5175 102.817 55.133 102.742C55.5177 102.742 55.8254 102.668 56.2101 102.668C56.287 102.668 56.5179 102.668 56.6717 102.593C57.9796 102.445 59.2875 102.221 60.5954 101.849C61.4417 101.774 62.1341 101.551 62.7496 101.328ZM49.0551 73.1853C48.9782 73.1853 48.9782 73.1853 49.0551 73.1853C48.9782 73.1853 49.0551 73.1853 49.0551 73.1853ZM48.9012 73.1853H48.9782C48.9013 73.1853 48.9013 73.1853 48.8243 73.1853H48.9012ZM149.225 99.0198C148.609 98.4987 147.994 97.9775 147.532 97.6797C146.917 97.233 146.301 96.8607 145.686 96.4885C144.224 95.6695 142.762 94.925 141.454 94.4783C137.839 93.2126 133.992 92.7659 130.299 93.2126C126.76 93.6593 123.144 94.8505 119.682 95.8929C115.989 97.0096 112.219 97.9775 108.295 98.2009C94.6008 99.1687 81.0602 93.0637 73.9052 81.5983C67.5965 71.473 68.4428 59.4119 68.5197 48.0209C68.5197 47.7975 68.5198 47.4997 68.4428 47.3508C68.3659 47.2019 68.212 47.053 68.0582 46.9041C64.9038 44.2239 61.2109 42.0648 57.6719 39.9057C56.364 39.0868 55.0561 38.1934 53.7482 37.3744C53.7482 37.4488 53.7482 37.4488 53.7482 37.4488C53.2097 43.4794 52.9019 49.5844 52.9788 55.6893C52.9788 55.8382 52.9788 55.9871 52.9788 56.136C53.0558 59.3374 53.2096 62.6133 53.5174 65.8147C53.5943 66.4103 53.6712 67.0059 53.6712 67.6015C53.6712 67.8993 53.7482 68.1971 53.7482 68.4949C53.7482 68.6438 53.7482 68.7183 53.8251 68.8672C53.8251 68.9416 53.8251 69.0161 53.8251 69.0161C53.979 70.2073 54.2098 71.324 54.4406 72.5153C54.9022 74.8977 55.4408 77.2057 56.1332 79.5136C57.3641 83.7574 58.8259 87.1821 60.9801 90.9047C61.057 90.9791 61.057 91.0536 61.134 91.128C61.2878 91.3514 61.4417 91.5747 61.5187 91.7981C62.1341 92.8404 62.8265 93.8082 63.5189 94.7016C63.6728 94.9994 63.9037 95.2228 64.1345 95.4462C64.2114 95.5206 64.2114 95.5206 64.2883 95.5951C64.2883 95.6695 64.3653 95.744 64.3653 95.744C64.7499 96.1907 65.1346 96.6374 65.5193 97.0841C67.2119 98.9454 69.0583 100.732 71.0586 102.296C75.1362 105.571 80.3678 108.326 85.2917 110.187C90.7541 112.198 96.3703 113.314 102.14 113.463C108.603 113.612 114.989 112.495 121.22 111.006C127.452 109.517 133.607 107.209 139.993 106.316C145.147 105.571 150.302 105.646 155.38 106.39C155.303 106.242 155.226 106.093 155.149 105.944C153.456 103.264 151.764 101.179 149.225 99.0198ZM37.9765 87.2565H38.0534C38.3611 87.4054 38.6689 87.4799 38.9766 87.6288C40.2845 88.0755 41.5924 88.5222 42.9772 88.8945C44.2852 89.2667 45.6699 89.5645 46.9779 89.7879C47.3625 89.8623 47.6703 89.8623 48.055 89.9368C48.1319 89.9368 48.3627 89.9368 48.4396 90.0112C48.5166 90.0112 48.5935 90.0112 48.5935 90.0112C49.2859 90.0857 49.9784 90.1601 50.6708 90.2346C52.2095 90.309 53.8251 90.3835 55.3638 90.309C53.3635 86.2887 51.9017 82.1194 50.7477 77.7268C46.5163 77.2801 42.3617 76.6101 38.2842 75.4933C37.1301 75.1955 35.9761 74.8232 34.7452 74.451C32.4371 74.9721 30.206 75.6422 28.0518 76.3867C27.5132 76.6101 26.8977 76.8334 26.3592 77.0568C26.2053 77.1312 26.0515 77.1312 25.9745 77.2057H25.8976C25.6668 77.2801 25.3591 77.429 25.1282 77.5779C24.8205 77.7268 24.5897 77.8013 24.3589 77.9502C25.7437 79.4392 27.2824 80.7793 28.898 82.045C28.975 82.1194 29.1289 82.1939 29.0519 82.1939C29.2058 82.2683 29.2827 82.4172 29.4366 82.4917C29.7443 82.715 29.9752 82.864 30.206 83.0873C30.7445 83.4596 31.36 83.8318 31.8985 84.2041C33.0526 84.9486 34.2836 85.5442 35.5145 86.1398C36.13 86.4376 36.7455 86.7354 37.3609 86.9587C37.6687 87.1076 37.8226 87.1821 37.9765 87.2565ZM28.975 82.1939C29.0519 82.1939 29.0519 82.2683 29.0519 82.2683C28.975 82.2683 28.898 82.1939 28.898 82.1194C28.975 82.1194 28.975 82.1939 28.975 82.1939ZM30.2829 68.1971C30.3599 68.1971 30.5137 68.2715 30.5906 68.346C30.8214 68.4204 30.9753 68.4949 31.2061 68.5694C31.6677 68.7183 32.0524 68.9416 32.514 69.0905C33.4372 69.4628 34.3605 69.7606 35.2068 70.0584C37.0532 70.654 38.8997 71.1751 40.7461 71.6218C42.6695 72.0685 44.5929 72.5153 46.5163 72.8131C46.9779 72.8875 47.5164 72.962 47.978 73.0364C48.2089 73.0364 48.4396 73.1109 48.6704 73.1109C48.7474 73.1109 48.7474 73.1109 48.8243 73.1109C48.6704 73.1109 48.5935 73.0364 49.0551 73.1109C49.3629 73.1109 49.5937 73.1853 49.9014 73.1853C49.2859 69.6861 48.8243 66.1869 48.5935 62.6877C48.4397 61.0498 48.4397 59.4119 48.3627 57.6995C41.9771 56.6572 35.7453 54.7959 29.8213 52.1901C25.9745 50.4778 22.1278 48.3931 18.5887 46.0107C17.05 45.9362 15.4344 45.9363 13.8957 46.0852C13.6649 46.0852 13.4341 46.0852 13.2802 46.1596C13.8957 46.0107 13.2802 46.1596 13.1263 46.1596C12.7416 46.2341 12.357 46.3085 12.0492 46.3085C11.2799 46.4574 10.5105 46.6063 9.66422 46.8297C8.89486 47.053 8.12551 47.2764 7.35616 47.5742C6.97148 47.7231 6.66377 47.872 6.27909 47.9464C6.89457 47.7975 6.20217 47.9464 6.04829 48.0209C5.89442 48.0953 5.66358 48.1698 5.43277 48.3187C4.81729 48.6165 4.12487 48.9143 3.50939 49.2866C5.74052 51.8179 8.20245 54.1259 10.8182 56.2849C11.5876 56.8805 12.28 57.4762 13.0494 58.0718C13.2802 58.2207 13.511 58.3696 13.6649 58.5929C13.7418 58.6674 13.8187 58.6674 13.8957 58.7418C14.2803 58.9652 14.5881 59.263 14.9728 59.4863C16.5115 60.6031 18.1271 61.6454 19.7428 62.6133C23.051 64.6235 26.5131 66.3358 30.0521 67.8249C30.2059 68.1971 30.206 68.1971 30.2829 68.1971ZM123.452 60.752C123.221 61.1987 122.913 61.6454 122.682 62.0921C122.913 61.8688 123.144 61.7199 123.452 61.4965C127.298 58.5929 131.068 55.2426 134.299 51.669C134.838 51.0734 135.3 50.4778 135.838 49.8822C135.992 49.7333 136.146 49.5099 136.3 49.2866C136.3 49.2866 136.3 49.2865 136.3 49.2121C136.3 49.2121 136.3 49.1377 136.377 49.1377C136.608 48.8398 136.838 48.542 137.069 48.2442C137.992 46.9786 138.916 45.7129 139.762 44.3728C141.454 41.6925 143.07 38.9379 144.455 36.1087C145.147 34.6942 145.84 33.2796 146.455 31.7906C146.455 31.7161 146.532 31.6417 146.532 31.4928C146.609 31.2694 146.686 31.1205 146.763 30.8972C146.917 30.4505 147.148 30.0782 147.302 29.7059C147.686 28.7381 148.148 27.8447 148.532 26.8768C149.994 23.6754 151.61 20.474 153.687 17.5704C154.687 16.1559 155.841 14.7413 156.995 13.4756C156.995 13.4756 156.995 13.4012 156.918 13.4012C156.688 12.9545 156.534 12.5822 156.303 12.1355C155.841 11.3165 155.38 10.572 154.841 9.82753C154.687 9.60418 154.533 9.45527 154.38 9.23192C154.303 9.15747 154.226 9.08301 154.149 9.00856C153.841 8.63631 153.533 8.33851 153.226 7.96625C152.918 7.594 152.533 7.29619 152.148 6.92393C151.841 6.99838 151.61 7.07284 151.302 7.22174C150.994 7.29619 150.764 7.44509 150.456 7.51954C150.379 7.51954 150.379 7.594 150.302 7.594C150.148 7.66845 150.071 7.7429 149.917 7.7429C148.686 8.26406 147.532 8.93412 146.455 9.67863C146.224 9.82753 145.84 9.97643 145.763 10.1998C145.994 9.97643 146.071 9.97643 145.84 10.1253C145.763 10.1998 145.686 10.2742 145.609 10.2742C145.455 10.3487 145.378 10.4231 145.224 10.572C144.686 10.9443 144.224 11.391 143.763 11.8377C142.762 12.7311 141.839 13.7734 140.993 14.7413C140.993 14.8157 140.916 14.8157 140.916 14.8902C140.839 14.9646 140.762 15.0391 140.762 15.1135C140.608 15.3369 140.377 15.5602 140.223 15.8581C139.839 16.3048 139.531 16.8259 139.223 17.3471C138.608 18.3149 137.992 19.3573 137.454 20.3996C137.069 21.0696 136.761 21.8141 136.454 22.4842C136.377 22.6331 136.3 22.782 136.3 22.8565C136.3 22.8565 136.3 22.9309 136.223 22.9309C136.069 23.2287 135.992 23.5265 135.838 23.8243C135.3 25.1644 134.838 26.4301 134.376 27.7702C132.607 33.0562 131.299 38.5656 129.76 43.9261C128.837 47.2019 127.76 50.4778 126.529 53.6792C125.683 56.3594 124.683 58.5929 123.452 60.752ZM102.833 80.0348C102.91 80.0348 102.91 80.0348 102.833 80.0348C102.91 80.0348 102.91 80.0348 102.833 80.0348C102.91 80.0348 102.833 80.0348 102.833 80.0348ZM95.1394 77.0568C95.2163 77.0568 95.2163 77.0568 95.1394 77.0568C95.1394 77.0568 95.0624 77.0568 95.0624 76.9823C95.1394 76.9823 95.1394 77.0568 95.1394 77.0568ZM95.2933 77.1312C95.2163 77.0568 95.2163 77.0568 95.2163 77.0568C95.2163 77.1312 95.2933 77.1312 95.2933 77.1312ZM184.615 8.11515C184.538 8.11515 184.538 8.0407 184.461 8.0407C183.769 7.81734 183 7.594 182.23 7.4451C182.153 7.4451 182.076 7.44509 181.922 7.37064C181.769 7.37064 181.615 7.37064 181.538 7.29619C181.153 7.22174 180.768 7.22174 180.384 7.22174C179.614 7.22174 178.768 7.22174 177.999 7.29619C177.845 7.29619 177.768 7.29619 177.614 7.37064C177.537 7.37064 177.306 7.4451 177.229 7.4451C176.845 7.51955 176.46 7.59399 176.075 7.66844C175.306 7.81734 174.537 8.0407 173.767 8.26405C172.921 8.48741 172.075 8.78521 171.305 9.08302C171.305 9.08302 171.228 9.15746 171.151 9.15746C171.459 9.08301 171.151 9.15747 170.998 9.23192C170.844 9.30637 170.613 9.38082 170.459 9.45527C170.074 9.60418 169.69 9.82753 169.305 9.97643C167.766 10.7209 166.228 11.6143 164.843 12.5822C164.612 12.7311 164.458 12.88 164.227 13.0289L164.15 13.1034C164.227 13.0289 164.304 13.0289 164.073 13.1778C163.766 13.4012 163.458 13.699 163.15 13.9223C162.458 14.4435 161.842 15.0391 161.227 15.6347C160.611 16.2303 159.996 16.9004 159.38 17.5704C159.227 17.7938 159.073 17.9427 158.919 18.166C158.842 18.2405 158.842 18.3149 158.765 18.3894C158.534 18.6872 158.688 18.4638 158.765 18.3894C158.457 18.6872 158.226 19.0594 157.996 19.4317C156.918 20.8463 155.995 22.3353 155.149 23.8988C154.303 25.4622 153.533 27.0257 152.764 28.5892C152.379 29.4081 151.995 30.2271 151.687 31.0461C151.61 31.1205 151.61 31.2694 151.533 31.3439C151.456 31.4928 151.379 31.7161 151.302 31.865C151.148 32.2373 150.994 32.684 150.764 33.0562C149.456 36.1087 148.071 39.0868 146.455 41.9904C143.224 47.872 138.993 53.5302 133.992 58.2207C131.376 60.6775 128.529 62.8366 125.452 64.6979C122.144 66.7081 118.451 67.9738 114.989 69.6861C121.605 57.9973 125.375 45.0428 128.529 32.2373C128.529 32.1628 128.529 32.0884 128.529 31.9395C128.529 31.865 128.529 31.7906 128.452 31.7161C127.144 28.3658 124.067 25.1644 120.682 23.6754C120.297 23.5265 116.066 21.963 115.912 22.4097C114.912 25.3878 114.45 28.6636 113.758 31.7161C112.835 35.5131 112.065 39.3846 110.988 43.1071C109.603 47.7975 107.834 52.339 105.987 56.8806C104.295 61.0498 102.217 65.1446 99.9863 69.0905C97.7552 72.962 95.4471 76.9823 92.6775 80.4071C92.2928 80.8538 94.9855 82.715 95.2933 82.8639C96.2934 83.4595 97.3705 83.9062 98.5245 84.2785C99.2939 84.5019 100.063 84.7252 100.91 84.8741C101.14 84.8741 101.371 84.9486 101.602 84.9486C102.064 84.9486 101.91 84.9486 101.756 84.9486H101.833C102.217 85.023 102.679 85.023 103.064 85.023C103.91 85.0975 104.756 85.0975 105.603 85.0975C106.449 85.0975 107.372 85.023 108.218 84.9486C108.449 84.9486 108.68 84.8741 108.911 84.8741C108.988 84.8741 109.449 84.7997 109.065 84.8741C108.68 84.9486 109.142 84.8741 109.219 84.8741C109.603 84.7997 109.988 84.7252 110.373 84.7252C112.142 84.4274 113.835 84.0552 115.527 83.534C130.607 79.3647 144.147 70.7284 154.764 59.6352C156.149 58.1462 157.534 56.6572 158.842 55.0937C158.996 54.8704 159.227 54.647 159.38 54.4237C159.457 54.3492 159.534 54.2748 159.534 54.2003C159.842 53.8281 160.15 53.3814 160.457 53.0091C161.073 52.1901 161.688 51.2967 162.304 50.4778C166.997 43.7027 170.69 36.4065 174.383 29.1103C177.845 22.1864 181.307 15.1136 186 8.93412C185.692 8.78522 185.385 8.56185 185 8.41295C185 8.26405 184.692 8.1896 184.615 8.11515ZM102.987 80.1093H103.064C102.987 80.1093 102.987 80.1093 102.987 80.1093ZM141.916 110.709C141.916 110.709 150.148 109.071 156.226 110.709C156.226 110.709 157.765 116.441 157.457 120.536C157.457 120.536 153.456 112.942 141.916 110.709Z" fill="url(#paint0_linear)"/>
<path d="M16.911 167.274C17.9275 168.26 18.5743 169.604 18.5743 171.037C18.5743 173.187 17.2806 175.068 15.34 175.964C14.8779 176.233 14.3235 176.323 13.769 176.412C13.6766 176.412 13.6766 176.412 13.5842 176.412H3.69637V185.64H0V165.572H13.0298C14.4159 165.662 15.802 166.199 16.911 167.274ZM13.6766 172.739C14.3235 172.47 14.7855 171.843 14.7855 171.037C14.7855 170.41 14.4159 169.962 14.2311 169.693C13.9538 169.424 13.5842 169.156 12.9373 169.156H3.60399V172.829H12.9373C13.2145 172.918 13.4918 172.918 13.6766 172.739Z" fill="#EA7A57"/>
<path d="M24.3766 185.64V165.572H28.0915V185.64H24.3766Z" fill="#EA7A57"/>
<path d="M54.7267 175.606C54.7267 178.114 53.7924 180.264 52.2977 182.056H57.4212V185.64H44.4504H44.3569C38.5648 185.64 33.8937 181.16 33.8937 175.606C33.8937 170.052 38.5648 165.572 44.3569 165.572C50.0556 165.572 54.7267 170.052 54.7267 175.606ZM50.9898 175.606C50.9898 172.022 48.0003 169.156 44.2635 169.156C40.5267 169.156 37.5372 172.022 37.5372 175.606C37.5372 179.189 40.5267 182.056 44.2635 182.056H44.4504C48.0938 181.967 50.9898 179.1 50.9898 175.606Z" fill="#EA7A57"/>
<path d="M84.1498 165.572V175.606C84.1498 181.16 79.4788 185.64 73.6866 185.64C67.8945 185.64 63.2235 181.16 63.2235 175.606V165.572H66.9603V175.606C66.9603 179.189 69.9498 182.056 73.6866 182.056C77.4235 182.056 80.413 179.189 80.413 175.606V165.572H84.1498Z" fill="#EA7A57"/>
<path d="M111.252 185.64H107.048L105.18 182.056L100.602 173.456L96.0245 182.056L94.156 185.64H89.9521L91.8205 182.056L100.602 165.572L109.384 182.056L111.252 185.64Z" fill="#EA7A57"/>
<path d="M132.174 171.127V171.037C132.174 170.052 131.383 169.245 130.416 169.245H122.417C121.45 169.245 120.658 170.052 120.658 171.037V171.127C120.658 172.112 121.45 172.918 122.417 172.918H129.449C131.295 172.918 132.877 173.725 134.02 174.979C134.108 175.068 134.196 175.158 134.284 175.248C135.163 176.323 135.69 177.756 135.69 179.279C135.69 182.773 132.877 185.64 129.449 185.64H123.296C119.867 185.64 117.054 182.773 117.054 179.279H120.571C120.571 180.802 121.801 182.056 123.296 182.056H129.449C130.943 182.056 132.174 180.802 132.174 179.279C132.174 177.756 130.943 176.502 129.449 176.502H122.417C121.01 176.502 119.692 175.964 118.725 174.979C118.461 174.71 118.285 174.441 118.021 174.083C117.406 173.187 117.142 172.202 117.142 171.037V170.947C117.142 167.991 119.516 165.572 122.417 165.572H130.416C133.317 165.572 135.69 167.991 135.69 170.947V171.037L132.174 171.127Z" fill="#EA7A57"/>
<path d="M156.612 171.127V171.037C156.612 170.052 155.821 169.245 154.854 169.245H146.855C145.888 169.245 145.097 170.052 145.097 171.037V171.127C145.097 172.112 145.888 172.918 146.855 172.918H153.887C155.733 172.918 157.315 173.725 158.458 174.979C158.546 175.068 158.634 175.158 158.722 175.248C159.601 176.323 160.128 177.756 160.128 179.279C160.128 182.773 157.315 185.64 153.887 185.64H147.734C144.305 185.64 141.493 182.773 141.493 179.279H145.009C145.009 180.802 146.239 182.056 147.734 182.056H153.887C155.381 182.056 156.612 180.802 156.612 179.279C156.612 177.756 155.381 176.502 153.887 176.502H146.855C145.448 176.502 144.13 175.964 143.163 174.979C142.899 174.71 142.723 174.441 142.459 174.083C141.844 173.187 141.58 172.202 141.58 171.037V170.947C141.58 167.991 143.954 165.572 146.855 165.572H154.854C157.755 165.572 160.128 167.991 160.128 170.947V171.037L156.612 171.127Z" fill="#EA7A57"/>
<path d="M186 175.606C186 181.16 181.52 185.64 175.965 185.64C170.41 185.64 165.931 181.16 165.931 175.606C165.931 170.052 170.41 165.572 175.965 165.572C181.52 165.572 186 170.052 186 175.606ZM182.416 175.606C182.416 172.022 179.549 169.156 175.965 169.156C172.382 169.156 169.514 172.022 169.514 175.606C169.514 179.189 172.382 182.056 175.965 182.056C179.549 181.967 182.416 179.1 182.416 175.606Z" fill="#EA7A57"/>
<defs>
<linearGradient id="paint0_linear" x1="-0.0198475" y1="72.0903" x2="186.057" y2="72.0903" gradientUnits="userSpaceOnUse">
<stop stop-color="#68BBC1"/>
<stop offset="0.2057" stop-color="#97B9A1"/>
<stop offset="0.4774" stop-color="#EDB667"/>
<stop offset="0.9865" stop-color="#E85E4F"/>
</linearGradient>
</defs>
</svg>
